#!OML:ASF H:\ManfredETheater\Project 1\Capture day 1\Session 1\subject.ASF
:FULLY-SPECIFIED
:DEGREES
425
root 1.57301 16.1685 -45.1903 -153.471 2.17382 -178.639
lowerback 21.3125 -1.06389 4.10429
upperback 1.43903 0.535395 3.91373
thorax -10.4072 0.382496 1.78434
lowerneck -18.4196 -1.1041 -3.16981
upperneck -4.44489 0.372387 -4.15528
head 1.70957 0.569779 -0.754592
rclavicle -9.54166e-015 1.98785e-014
rhumerus -33.855 1.13531 -85.9011
rradius 82.0068
rwrist -17.569
rhand -28.691 6.43259
rfingers 7.12502
rthumb -2.05333 -23.5373
lclavicle -9.54166e-015 1.98785e-014
lhumerus -48.1929 -6.21549 92.4606
lradius 70.2835
lwrist 17.5291
lhand -27.2058 -7.51893
lfingers 7.12502
lthumb -0.618848 22.4599
rfemur -38.4762 -5.27929 28.2342
rtibia 66.2692
rfoot -26.9215 -13.4694
rtoes -51.895
lfemur -41.5513 2.51463 -16.6705
ltibia 96.2848
lfoot 1.44178 -3.49823
ltoes 1.4418
426
root 1.58996 16.1271 -45.5481 -153.404 2.58662 -178.219
lowerback 21.2212 -0.854448 4.27988
upperback 1.3642 0.83169 3.84779
thorax -10.4384 0.506212 1.52371
lowerneck -18.5604 -1.00028 -3.01329
upperneck -4.11316 0.469919 -4.18411
head 1.84943 0.590984 -0.785262
rclavicle 4.77083e-015 5.725e-014
rhumerus -31.4707 2.88558 -86.6185
rradius 84.9067
rwrist -16.9145
rhand -28.2495 7.00727
rfingers 7.12502
rthumb -1.62687 -22.9663
lclavicle 4.77083e-015 5.725e-014
lhumerus -50.7802 -6.18083 92.1068
lradius 70.3256
lwrist 16.9628
lhand -27.5167 -8.01906
lfingers 7.12502
lthumb -0.919111 21.9587
rfemur -36.2703 -5.05995 28.3219
rtibia 64.8561
rfoot -27.4423 -13.6547
rtoes -52.1948
lfemur -45.2659 4.01434 -16.4499
ltibia 99.5554
lfoot -0.228663 -3.67726
ltoes 0.659629
427
root 1.60803 16.0872 -45.9158 -153.292 2.99805 -177.847
lowerback 21.0465 -0.634965 4.44296
upperback 1.24847 1.11702 3.72195
thorax -10.465 0.618908 1.20861
lowerneck -18.649 -0.929849 -2.86159
upperneck -3.80359 0.513156 -4.10753
head 1.97208 0.58871 -0.78456
rclavicle -2.38542e-014 -3.89618e-014
rhumerus -29.4066 4.54582 -87.2794
rradius 88.3732
rwrist -16.5441
rhand -27.7739 7.49435
rfingers 7.12502
rthumb -1.1675 -22.4822
lclavicle -2.38542e-014 -3.89618e-014
lhumerus -53.8868 -6.52816 91.8674
lradius 71.6947
lwrist 16.782
lhand -27.4125 -8.63729
lfingers 7.12502
lthumb -0.818516 21.3409
rfemur -34.0081 -4.83918 28.3418
rtibia 63.265
rfoot -27.8553 -13.8013
rtoes -52.5168
lfemur -49.0794 5.47898 -16.3888
ltibia 102.383
lfoot -1.83955 -3.94672
ltoes -0.381189
428
root 1.62782 16.0508 -46.295 -153.144 3.37319 -177.517
lowerback 20.7814 -0.405849 4.62566
upperback 1.10336 1.40064 3.54114
thorax -10.4685 0.725051 0.82423
lowerneck -18.6658 -0.90924 -2.71637
upperneck -3.54527 0.482805 -3.95156
head 2.06358 0.555462 -0.761983
rclavicle 2.70347e-014 1.98785e-014
rhumerus -27.6496 6.10178 -87.8479
rradius 92.3466
rwrist -16.5162
rhand -27.314 7.76252
rfingers 7.12502
rthumb -0.723313 -22.216
lclavicle 2.70347e-014 1.98785e-014
lhumerus -57.36 -7.1969 91.7556
lradius 74.1541
lwrist 17.1474
lhand -26.942 -9.27056
lfingers 7.12502
lthumb -0.364022 20.7089
rfemur -31.6694 -4.62047 28.312
rtibia 61.4721
rfoot -28.125 -13.8718
rtoes -52.8502
lfemur -52.954 6.84463 -16.4762
ltibia 104.716
lfoot -3.35064 -4.29877
ltoes -1.45024
